<?xml version="1.0" encoding="utf-8"?>
<!-- Generator: Adobe Illustrator 25.2.1, SVG Export Plug-In . SVG Version: 6.00 Build 0)  -->
<svg version="1.1" id="Layer_1" xmlns="http://www.w3.org/2000/svg" xmlns:xlink="http://www.w3.org/1999/xlink" x="0px" y="0px"
	 viewBox="0 0 500 500" style="enable-background:new 0 0 500 500;" xml:space="preserve">
<style type="text/css">
	.st0{fill:#1025EF;}
	.st1{clip-path:url(#SVGID_2_);fill:#1025EF;}
	.st2{clip-path:url(#SVGID_4_);fill:none;}
</style>
<g id="XMLID_1_">
	<path id="XMLID_9_" class="st0" d="M90.2,259.9c0-0.4-0.2-0.8-0.6-1.1L79.5,253c-0.2-0.1-0.4-0.1-0.5-0.2h-0.1
		c-0.2,0-0.4,0.1-0.5,0.2l-10.1,5.8c-0.4,0.2-0.6,0.6-0.6,1.1l0,15.7c0,0.2,0.1,0.4,0.3,0.5c0.2,0.1,0.4,0.1,0.6,0l6-3.4
		c0.4-0.2,0.6-0.6,0.6-1.1v-7.3c0-0.4,0.2-0.8,0.6-1.1l2.5-1.5c0.2-0.1,0.4-0.2,0.6-0.2s0.4,0.1,0.6,0.2l2.5,1.5
		c0.4,0.2,0.6,0.6,0.6,1.1v7.3c0,0.4,0.2,0.8,0.6,1.1l6,3.4c0.2,0.1,0.4,0.1,0.6,0s0.3-0.3,0.3-0.5L90.2,259.9z M137.8,268.1
		c0,0.1-0.1,0.2-0.1,0.3l-3.5,2c-0.1,0.1-0.2,0.1-0.3,0l-3.5-2c-0.1-0.1-0.1-0.1-0.1-0.3v-4c0-0.1,0.1-0.2,0.1-0.3l3.5-2
		c0.1-0.1,0.2-0.1,0.3,0l3.5,2c0.1,0.1,0.1,0.1,0.1,0.3V268.1z M138.8,238.4c-0.2-0.1-0.4-0.1-0.6,0c-0.2,0.1-0.3,0.3-0.3,0.5v15.5
		c0,0.1-0.1,0.3-0.2,0.4c-0.1,0.1-0.3,0.1-0.4,0l-2.5-1.4c-0.4-0.2-0.8-0.2-1.2,0l-10.1,5.8c-0.4,0.2-0.6,0.6-0.6,1v11.7
		c0,0.4,0.2,0.8,0.6,1.1l10.1,5.8c0.4,0.2,0.8,0.2,1.2,0l10.1-5.8c0.4-0.2,0.6-0.6,0.6-1.1v-29.1c0-0.4-0.2-0.8-0.6-1.1L138.8,238.4
		z M172.4,264c0.4-0.2,0.6-0.6,0.6-1v-2.8c0-0.4-0.2-0.8-0.6-1.1l-10-5.8c-0.4-0.2-0.8-0.2-1.2,0L151,259c-0.4,0.2-0.6,0.6-0.6,1.1
		v11.6c0,0.4,0.2,0.8,0.6,1.1l10,5.7c0.4,0.2,0.8,0.2,1.2,0l6.1-3.4c0.2-0.1,0.3-0.3,0.3-0.5c0-0.2-0.1-0.4-0.3-0.5l-10.2-5.8
		c-0.2-0.1-0.3-0.3-0.3-0.5v-3.7c0-0.2,0.1-0.4,0.3-0.5l3.1-1.8c0.2-0.1,0.4-0.1,0.6,0l3.1,1.8c0.2,0.1,0.3,0.3,0.3,0.5v2.9
		c0,0.2,0.1,0.4,0.3,0.5c0.2,0.1,0.4,0.1,0.6,0L172.4,264z"/>
	<path id="XMLID_14_" class="st0" d="M161.6,263.4c0.1,0,0.2,0,0.2,0l1.9,1.1c0.1,0,0.1,0.1,0.1,0.2v2.2c0,0.1-0.1,0.2-0.1,0.2
		l-1.9,1.1c-0.1,0-0.2,0-0.2,0l-1.9-1.1c-0.1,0-0.1-0.1-0.1-0.2v-2.2c0-0.1,0-0.2,0.1-0.2L161.6,263.4z"/>
	<g id="XMLID_15_">
		<g>
			<defs>
				<path id="SVGID_1_" d="M105.9,253.3l-10.1,5.8c-0.4,0.2-0.6,0.6-0.6,1v11.6c0,0.4,0.2,0.8,0.6,1l10.1,5.8c0.4,0.2,0.8,0.2,1.2,0
					l10.1-5.8c0.4-0.2,0.6-0.6,0.6-1v-11.6c0-0.4-0.2-0.8-0.6-1l-10.1-5.8c-0.2-0.1-0.4-0.2-0.6-0.2
					C106.3,253.1,106.1,253.1,105.9,253.3"/>
			</defs>
			<clipPath id="SVGID_2_">
				<use xlink:href="#SVGID_1_"  style="overflow:visible;"/>
			</clipPath>
			<polygon class="st1" points="127.9,258.1 99.6,244.2 85.1,273.8 113.4,287.7 			"/>
		</g>
	</g>
	<g id="XMLID_17_">
		<g>
			<defs>
				<path id="SVGID_3_" d="M95.5,272.4c0.1,0.1,0.2,0.2,0.3,0.3l8.6,5l1.4,0.8c0.2,0.1,0.5,0.2,0.7,0.1c0.1,0,0.2,0,0.2-0.1
					l10.6-19.4c-0.1-0.1-0.2-0.2-0.3-0.2l-6.6-3.8l-3.5-2c-0.1-0.1-0.2-0.1-0.3-0.1L95.5,272.4z"/>
			</defs>
			<clipPath id="SVGID_4_">
				<use xlink:href="#SVGID_3_"  style="overflow:visible;"/>
			</clipPath>
			<polygon class="st2" points="83.3,262.2 103.2,289.2 129.6,269.7 109.7,242.6 			"/>
		</g>
	</g>
</g>
</svg>
