<svg xmlns="http://www.w3.org/2000/svg" width="20.41" height="28.188" viewBox="0 0 20.41 28.188">
  <defs>
    <style>
      .cls-1 {
        fill-rule: evenodd;
      }
    </style>
  </defs>
  <path id="y" class="cls-1" d="M1862.53,221.072l7.1,17.739a2.18,2.18,0,0,1,.28.992,1.568,1.568,0,0,1-.32.874,6.908,6.908,0,0,1-2.5,2.42,7.611,7.611,0,0,1-2.62,1.032l1.27,5.12a11.161,11.161,0,0,0,5.84-2.659c2.18-1.945,4.04-5.04,6.82-12.739l4.53-12.779h-6.47l-2.38,9.524c-0.28,1.112-.6,2.58-0.88,3.612h-0.12c-0.23-1.032-.63-2.461-0.95-3.612l-2.9-9.524h-6.7Z" transform="translate(-1862.53 -221.062)"/>
</svg>
