<svg xmlns="http://www.w3.org/2000/svg" viewBox="0 0 105.83 40.82"><g id="Layer_2" data-name="Layer 2"><g id="Layer_1-2" data-name="Layer 1"><path d="M38.41,15,28.32,20.81a1.24,1.24,0,0,0-.61,1V33.51a1.16,1.16,0,0,0,.61,1l10.09,5.83a1.32,1.32,0,0,0,1.22,0l10-5.83a1.25,1.25,0,0,0,.6-1V21.86a1.2,1.2,0,0,0-.6-1L39.63,15a1.47,1.47,0,0,0-.61-.17,1.39,1.39,0,0,0-.61.17"/><path d="M22.67,21.66a1.27,1.27,0,0,0-.59-1.08L11.94,14.75a2.51,2.51,0,0,0-.55-.17h-.11a1,1,0,0,0-.55.17L.61,20.58A1.26,1.26,0,0,0,0,21.66v15.7a.58.58,0,0,0,.29.53.59.59,0,0,0,.6,0l6-3.46a1.26,1.26,0,0,0,.61-1.06V26A1.25,1.25,0,0,1,8.14,25l2.55-1.48a1.28,1.28,0,0,1,.61-.18,1.17,1.17,0,0,1,.6.18L14.45,25a1.2,1.2,0,0,1,.6,1.07v7.34a1.25,1.25,0,0,0,.62,1.06l6,3.46a.56.56,0,0,0,.61,0,.67.67,0,0,0,.29-.53Zm47.8,8.17a.32.32,0,0,1-.15.26l-3.47,2a.36.36,0,0,1-.32,0l-3.49-2a.34.34,0,0,1-.14-.26v-4a.34.34,0,0,1,.14-.26l3.49-2a.36.36,0,0,1,.32,0l3.47,2a.31.31,0,0,1,.15.26Zm1-29.74a.55.55,0,0,0-.6,0,.61.61,0,0,0-.29.52V16.18a.49.49,0,0,1-.21.37.38.38,0,0,1-.43,0l-2.6-1.45a1.16,1.16,0,0,0-1.22,0L56,21a1.18,1.18,0,0,0-.61,1V33.71A1.23,1.23,0,0,0,56,34.78l10.14,5.86a1.16,1.16,0,0,0,1.22,0l10.14-5.86a1.24,1.24,0,0,0,.62-1.07V4.53a1.25,1.25,0,0,0-.65-1.08Zm33.74,25.62a1.19,1.19,0,0,0,.62-1V21.83a1.29,1.29,0,0,0-.62-1.08l-10-5.85a1.16,1.16,0,0,0-1.22,0L83.75,20.75a1.25,1.25,0,0,0-.62,1.08V33.51a1.26,1.26,0,0,0,.62,1.07l10,5.74a1.26,1.26,0,0,0,1.19,0l6.09-3.39a.62.62,0,0,0,.32-.52.57.57,0,0,0-.32-.52L90.87,30a.61.61,0,0,1-.31-.52V25.83a.54.54,0,0,1,.31-.52L94,23.48a.58.58,0,0,1,.62,0l3.16,1.83a.59.59,0,0,1,.31.52v2.89a.63.63,0,0,0,.93.52Z"/><path d="M94.33,25.16a.33.33,0,0,1,.24,0l1.94,1.13a.2.2,0,0,1,.11.2v2.23a.25.25,0,0,1-.11.21l-2,1.18a.31.31,0,0,1-.23,0L92.4,29a.19.19,0,0,1-.12-.21V26.49a.2.2,0,0,1,.12-.2Z"/></g></g></svg>