<svg xmlns="http://www.w3.org/2000/svg" viewBox="0 0 98.03 40.82"><defs><style>.cls-1{isolation:isolate;}.cls-2{fill:#030303;}</style></defs><g id="Layer_2" data-name="Layer 2"><g id="Layer_1-2" data-name="Layer 1"><g id="Pgres" class="cls-1"><path class="cls-2" d="M0,29.16V.59A.59.59,0,0,1,.16.16.6.6,0,0,1,.6,0H14.7a9,9,0,0,1,3.45.65,8.11,8.11,0,0,1,2.79,2A8.93,8.93,0,0,1,22.85,6a15.05,15.05,0,0,1,.68,4.7,15.19,15.19,0,0,1-.68,4.72,8.73,8.73,0,0,1-1.91,3.34,8.08,8.08,0,0,1-2.79,1.94,9,9,0,0,1-3.45.65H8.36v7.86a.57.57,0,0,1-.18.43.65.65,0,0,1-.42.16H.6a.64.64,0,0,1-.44-.16A.59.59,0,0,1,0,29.16ZM12.05,14.37a2.81,2.81,0,0,0,2.19-1,4,4,0,0,0,.87-2.71A3.94,3.94,0,0,0,14.24,8a2.8,2.8,0,0,0-2.19-1H8.63a.24.24,0,0,0-.27.27v6.84q0,.3.27.3Z"/><path class="cls-2" d="M37,9.76H44.8a.58.58,0,0,1,.42.18.55.55,0,0,1,.18.41V30.17a6.47,6.47,0,0,1-.06.74A12.45,12.45,0,0,1,45,32.47a10.52,10.52,0,0,1-.82,2.1,11.19,11.19,0,0,1-4.06,4.22,13.65,13.65,0,0,1-3.7,1.45,20.9,20.9,0,0,1-5.07.58,27.29,27.29,0,0,1-5-.33.53.53,0,0,1-.48-.57V33.17a.52.52,0,0,1,.24-.46.62.62,0,0,1,.51-.1,14,14,0,0,0,3.92.68A10.57,10.57,0,0,0,33.23,33a5.74,5.74,0,0,0,1.89-.82,5.51,5.51,0,0,0,1.07-1,4.64,4.64,0,0,0,.61-1,10.92,10.92,0,0,1-2.94.41,10.44,10.44,0,0,1-4.39-.95A10.74,10.74,0,0,1,23.26,18.8,10.77,10.77,0,0,1,33,9.34,10.85,10.85,0,0,1,37,9.82Zm-5.3,12.31A3,3,0,0,0,36.83,20,2.94,2.94,0,0,0,36,17.86a3,3,0,0,0-4.23,0A2.94,2.94,0,0,0,30.88,20,2.85,2.85,0,0,0,31.74,22.07Z"/><path class="cls-2" d="M55.13,10.56A14.82,14.82,0,0,1,60,9.76l.8,0a.61.61,0,0,1,.39.19.56.56,0,0,1,.14.4v6a.57.57,0,0,1-.17.42.52.52,0,0,1-.45.15l-.71,0a6.69,6.69,0,0,0-2.89.62,4.6,4.6,0,0,0-2,1.64v10a.57.57,0,0,1-.18.43.65.65,0,0,1-.42.16h-7.7a.57.57,0,0,1-.6-.59V10.35a.58.58,0,0,1,.17-.41.54.54,0,0,1,.43-.18h7.7a.54.54,0,0,1,.4.16.67.67,0,0,1,.2.4Z"/><path class="cls-2" d="M81.81,15.17A12.25,12.25,0,0,1,83,20.08a.49.49,0,0,1-.44.57l-11.28,2.5a3.53,3.53,0,0,0,1.61.38,3.91,3.91,0,0,0,2.56-.92.56.56,0,0,1,.46-.15.46.46,0,0,1,.37.24l3.09,4.55a.52.52,0,0,1-.09.77A10.66,10.66,0,0,1,67,29.18a10.58,10.58,0,0,1-5.28-9.25v0a6.44,6.44,0,0,1,.06-.86A10.61,10.61,0,0,1,72.29,9.31a10.6,10.6,0,0,1,5.64,1.56A10.16,10.16,0,0,1,81.81,15.17Zm-8.18.48a4.63,4.63,0,0,0-2.17.52A3.32,3.32,0,0,0,70,17.52a.14.14,0,0,0,0,.17.12.12,0,0,0,.15,0l5.5-1.19a.15.15,0,0,0,.11-.12.17.17,0,0,0-.05-.15A3.57,3.57,0,0,0,73.63,15.65Z"/><path class="cls-2" d="M91.69,8.92a41.06,41.06,0,0,1,5.06.36.57.57,0,0,1,.38.22.58.58,0,0,1,.12.44l-.74,5.59a.55.55,0,0,1-.27.42.59.59,0,0,1-.5.06,10.06,10.06,0,0,0-3.13-.66,1.87,1.87,0,0,0-1,.28.62.62,0,0,0-.3.73q.06.24.6.42a8.93,8.93,0,0,0,1.28.31,6,6,0,0,1,1.6.57,7.1,7.1,0,0,1,1.6,1.07,4.7,4.7,0,0,1,1.2,2A9.21,9.21,0,0,1,98,23.83a7.38,7.38,0,0,1-.45,2.66,5.11,5.11,0,0,1-1.16,1.88,8,8,0,0,1-1.58,1.19,6.48,6.48,0,0,1-1.72.68c-.58.13-1.1.23-1.58.3a5.63,5.63,0,0,1-1.16.07h-.45a44.6,44.6,0,0,1-6.12-.56.7.7,0,0,1-.39-.26.55.55,0,0,1-.12-.43l.92-5.53a.66.66,0,0,1,.29-.42.48.48,0,0,1,.46-.06,13.58,13.58,0,0,0,4,.72,2.13,2.13,0,0,0,1-.23.57.57,0,0,0,.33-.67c0-.17-.21-.32-.57-.44a7.12,7.12,0,0,0-1.27-.28A7,7,0,0,1,86.9,22a7.3,7.3,0,0,1-1.59-.91,4.06,4.06,0,0,1-1.22-1.7,6.81,6.81,0,0,1-.49-2.72,10.8,10.8,0,0,1,.28-2.56,7.27,7.27,0,0,1,.74-1.93,7.43,7.43,0,0,1,1.07-1.39A5.51,5.51,0,0,1,87,9.83a10.06,10.06,0,0,1,1.34-.56A6,6,0,0,1,89.59,9l1.07-.08a4.37,4.37,0,0,1,.73,0Z"/></g></g></g></svg>