<svg xmlns="http://www.w3.org/2000/svg" viewBox="0 0 64.24 64.24"><defs><style>.cls-1{fill:#231f20;}.cls-2{fill:#fff;fill-rule:evenodd;}</style></defs><g id="Layer_2" data-name="Layer 2"><g id="Layer_1-2" data-name="Layer 1"><rect class="cls-1" width="64.24" height="64.24" rx="7.39"/><path id="y" class="cls-2" d="M22.92,19,30,36.77a2.26,2.26,0,0,1,.28,1,1.59,1.59,0,0,1-.32.87,7,7,0,0,1-2.5,2.42,7.53,7.53,0,0,1-2.62,1l1.27,5.12A11.23,11.23,0,0,0,32,44.55c2.18-1.95,4-5,6.82-12.74L43.32,19H36.85l-2.38,9.52c-.28,1.12-.6,2.58-.88,3.62h-.12c-.23-1-.63-2.47-.95-3.62L29.62,19Z"/></g></g></svg>