<svg xmlns="http://www.w3.org/2000/svg" viewBox="0 0 64.24 64.24"><defs><style>.cls-1{fill:#231f20;}.cls-2{fill:#fff;}</style></defs><g id="Layer_2" data-name="Layer 2"><g id="Layer_1-2" data-name="Layer 1"><rect class="cls-1" width="64.24" height="64.24" rx="7.39"/><path class="cls-2" d="M16.51,19.44A28.29,28.29,0,0,0,44.8,47.72a1.46,1.46,0,0,0,1.42-1.13l1.47-6.34a1.49,1.49,0,0,0-.86-1.68L40,35.64a1.47,1.47,0,0,0-1.7.42l-3,3.7A22.63,22.63,0,0,1,24.47,29l3.7-3a1.48,1.48,0,0,0,.42-1.71L25.66,17.4A1.47,1.47,0,0,0,24,16.55L17.65,18A1.47,1.47,0,0,0,16.51,19.44Z"/></g></g></svg>